<svg xmlns="http://www.w3.org/2000/svg" viewBox="0 0 512 512" width="512" height="512">
  <rect width="512" height="512" rx="100" fill="#0f0f0f"/>
  <rect width="512" height="512" rx="100" fill="#111"/>
  <!-- Phone icon -->
  <path d="M160 140 C160 128 170 118 182 118 L218 118 C230 118 240 128 240 140 L240 155 C240 165 233 174 223 177 L210 181 C207 182 205 185 206 188 C214 218 238 242 268 250 C271 251 274 249 275 246 L279 233 C282 223 291 216 301 216 L316 216 C328 216 338 226 338 238 L338 274 C338 286 328 296 316 296 C224 296 152 224 152 132 C152 120 161.8 110 174 110" fill="none" stroke="#22c55e" stroke-width="28" stroke-linecap="round"/>
  <!-- did checkmark -->
  <path d="M190 370 L230 410 L330 310" fill="none" stroke="#22c55e" stroke-width="28" stroke-linecap="round" stroke-linejoin="round"/>
</svg>
